<?xml version="1.0" encoding="UTF-8" standalone="no"?>
<!DOCTYPE svg PUBLIC "-//W3C//DTD SVG 1.1//EN"
 "http://www.w3.org/Graphics/SVG/1.1/DTD/svg11.dtd">
<!-- Generated by graphviz version 2.43.0 (0)
 -->
<!-- Title: GEOG329 Pages: 1 -->
<svg width="574pt" height="247pt"
 viewBox="0.00 0.00 574.20 247.20" xmlns="http://www.w3.org/2000/svg" xmlns:xlink="http://www.w3.org/1999/xlink">
<g id="graph0" class="graph" transform="scale(1 1) rotate(0) translate(21.6 225.6)">
<title>GEOG329</title>
<!-- course__GEOG222 -->
<g id="node1" class="node">
<title>course__GEOG222</title>
<g id="a_node1"><a xlink:href="../../../courses/GEOG222.html" xlink:title="GEOG222: Introduction to GIS" target="_top">
<path fill="#e7e2d8" stroke="#1b2730" stroke-width="1.6" d="M62.5,-204C62.5,-204 23.5,-204 23.5,-204 17.5,-204 11.5,-198 11.5,-192 11.5,-192 11.5,-180 11.5,-180 11.5,-174 17.5,-168 23.5,-168 23.5,-168 62.5,-168 62.5,-168 68.5,-168 74.5,-174 74.5,-180 74.5,-180 74.5,-192 74.5,-192 74.5,-198 68.5,-204 62.5,-204"/>
<text text-anchor="middle" x="43" y="-183.5" font-family="Avenir Next" font-size="10.00" fill="#17232b">GEOG222</text>
</a>
</g>
</g>
<!-- course__GEOG329 -->
<g id="node5" class="node">
<title>course__GEOG329</title>
<g id="a_node5"><a xlink:href="../../../courses/GEOG329.html" xlink:title="GEOG329: GIS Applications and Tools" target="_top">
<path fill="#e7e2d8" stroke="#1f4f66" stroke-width="2" d="M395,-148C395,-148 274,-148 274,-148 268,-148 262,-142 262,-136 262,-136 262,-124 262,-124 262,-118 268,-112 274,-112 274,-112 395,-112 395,-112 401,-112 407,-118 407,-124 407,-124 407,-136 407,-136 407,-142 401,-148 395,-148"/>
<text text-anchor="middle" x="334.5" y="-133" font-family="Avenir Next" font-size="10.00" fill="#17232b">GEOG329</text>
<text text-anchor="middle" x="334.5" y="-122" font-family="Avenir Next" font-size="10.00" fill="#17232b">GIS Applications and Tools</text>
</a>
</g>
</g>
<!-- course__GEOG222&#45;&gt;course__GEOG329 -->
<g id="edge3" class="edge">
<title>course__GEOG222&#45;&gt;course__GEOG329</title>
<path fill="none" stroke="#5d6972" stroke-width="1.2" d="M74.71,-180.06C117.22,-171.84 195.46,-156.7 254.83,-145.22"/>
<polygon fill="#5d6972" stroke="#5d6972" stroke-width="1.2" points="255.57,-147.57 261.97,-143.84 254.64,-142.76 255.57,-147.57"/>
</g>
<!-- course__GEOG226 -->
<g id="node2" class="node">
<title>course__GEOG226</title>
<g id="a_node2"><a xlink:href="../../../courses/GEOG226.html" xlink:title="GEOG226: Quantitative Methods in Geography" target="_top">
<path fill="#e7e2d8" stroke="#1b2730" stroke-width="1.6" d="M62.5,-92C62.5,-92 23.5,-92 23.5,-92 17.5,-92 11.5,-86 11.5,-80 11.5,-80 11.5,-68 11.5,-68 11.5,-62 17.5,-56 23.5,-56 23.5,-56 62.5,-56 62.5,-56 68.5,-56 74.5,-62 74.5,-68 74.5,-68 74.5,-80 74.5,-80 74.5,-86 68.5,-92 62.5,-92"/>
<text text-anchor="middle" x="43" y="-71.5" font-family="Avenir Next" font-size="10.00" fill="#17232b">GEOG226</text>
</a>
</g>
</g>
<!-- choice_GEOG329_0_1 -->
<g id="node9" class="node">
<title>choice_GEOG329_0_1</title>
<path fill="#fff7ee" stroke="#b7793f" stroke-width="1.1" d="M189,-92C189,-92 159,-92 159,-92 153,-92 147,-86 147,-80 147,-80 147,-68 147,-68 147,-62 153,-56 159,-56 159,-56 189,-56 189,-56 195,-56 201,-62 201,-68 201,-68 201,-80 201,-80 201,-86 195,-92 189,-92"/>
<text text-anchor="middle" x="174" y="-71.8" font-family="Avenir Next" font-size="9.00">1 of</text>
</g>
<!-- course__GEOG226&#45;&gt;choice_GEOG329_0_1 -->
<g id="edge1" class="edge">
<title>course__GEOG226&#45;&gt;choice_GEOG329_0_1</title>
<path fill="none" stroke="#7a8389" d="M74.57,-74C94.08,-74 119.38,-74 139.44,-74"/>
<polygon fill="#7a8389" stroke="#7a8389" points="139.58,-76.45 146.58,-74 139.58,-71.55 139.58,-76.45"/>
</g>
<!-- course__GEOG228 -->
<g id="node3" class="node">
<title>course__GEOG228</title>
<g id="a_node3"><a xlink:href="../../../courses/GEOG228.html" xlink:title="GEOG228: Introduction to Remote Sensing" target="_top">
<path fill="#e7e2d8" stroke="#1b2730" stroke-width="1.6" d="M62.5,-148C62.5,-148 23.5,-148 23.5,-148 17.5,-148 11.5,-142 11.5,-136 11.5,-136 11.5,-124 11.5,-124 11.5,-118 17.5,-112 23.5,-112 23.5,-112 62.5,-112 62.5,-112 68.5,-112 74.5,-118 74.5,-124 74.5,-124 74.5,-136 74.5,-136 74.5,-142 68.5,-148 62.5,-148"/>
<text text-anchor="middle" x="43" y="-127.5" font-family="Avenir Next" font-size="10.00" fill="#17232b">GEOG228</text>
</a>
</g>
</g>
<!-- course__GEOG228&#45;&gt;course__GEOG329 -->
<g id="edge4" class="edge">
<title>course__GEOG228&#45;&gt;course__GEOG329</title>
<path fill="none" stroke="#5d6972" stroke-width="1.2" d="M74.71,-130C117.22,-130 195.46,-130 254.83,-130"/>
<polygon fill="#5d6972" stroke="#5d6972" stroke-width="1.2" points="254.97,-132.45 261.97,-130 254.97,-127.55 254.97,-132.45"/>
</g>
<!-- course__STAT254 -->
<g id="node4" class="node">
<title>course__STAT254</title>
<g id="a_node4"><a xlink:href="../../../courses/STAT254.html" xlink:title="Collapsed in simplified view: STAT254: Probability and Statistics for Engineers | STAT255: Statistics for Life Sciences I | STAT260: Introduction to Probability and Statistics I" target="_top">
<path fill="#e6dde9" stroke="#1b2730" stroke-width="1.6" d="M74,-36C74,-36 12,-36 12,-36 6,-36 0,-30 0,-24 0,-24 0,-12 0,-12 0,-6 6,0 12,0 12,0 74,0 74,0 80,0 86,-6 86,-12 86,-12 86,-24 86,-24 86,-30 80,-36 74,-36"/>
<text text-anchor="middle" x="43" y="-15.5" font-family="Avenir Next" font-size="10.00" fill="#17232b">Intro statistics</text>
</a>
</g>
</g>
<!-- course__STAT254&#45;&gt;choice_GEOG329_0_1 -->
<g id="edge2" class="edge">
<title>course__STAT254&#45;&gt;choice_GEOG329_0_1</title>
<path fill="none" stroke="#7a8389" d="M85.53,-36.03C103.34,-43.76 123.85,-52.66 140.53,-59.9"/>
<polygon fill="#7a8389" stroke="#7a8389" points="139.55,-62.15 146.95,-62.69 141.51,-57.66 139.55,-62.15"/>
</g>
<!-- course__GEOG418 -->
<g id="node6" class="node">
<title>course__GEOG418</title>
<g id="a_node6"><a xlink:href="../../../courses/GEOG418.html" xlink:title="GEOG418: Advanced Spatial Analysis and Geo&#45;statistics" target="_top">
<path fill="#e7e2d8" stroke="#1b2730" stroke-width="1.6" d="M519,-204C519,-204 480,-204 480,-204 474,-204 468,-198 468,-192 468,-192 468,-180 468,-180 468,-174 474,-168 480,-168 480,-168 519,-168 519,-168 525,-168 531,-174 531,-180 531,-180 531,-192 531,-192 531,-198 525,-204 519,-204"/>
<text text-anchor="middle" x="499.5" y="-183.5" font-family="Avenir Next" font-size="10.00" fill="#17232b">GEOG418</text>
</a>
</g>
</g>
<!-- course__GEOG329&#45;&gt;course__GEOG418 -->
<g id="edge6" class="edge">
<title>course__GEOG329&#45;&gt;course__GEOG418</title>
<path fill="none" stroke="#5d6972" stroke-width="1.2" d="M387.97,-148.03C411.82,-156.22 439.49,-165.73 461.17,-173.18"/>
<polygon fill="#5d6972" stroke="#5d6972" stroke-width="1.2" points="460.57,-175.56 467.99,-175.52 462.17,-170.93 460.57,-175.56"/>
</g>
<!-- course__GEOG420 -->
<g id="node7" class="node">
<title>course__GEOG420</title>
<g id="a_node7"><a xlink:href="../../../courses/GEOG420.html" xlink:title="GEOG420: Field Studies in Coastal Geomatics" target="_top">
<path fill="#e7e2d8" stroke="#1b2730" stroke-width="1.6" d="M519,-148C519,-148 480,-148 480,-148 474,-148 468,-142 468,-136 468,-136 468,-124 468,-124 468,-118 474,-112 480,-112 480,-112 519,-112 519,-112 525,-112 531,-118 531,-124 531,-124 531,-136 531,-136 531,-142 525,-148 519,-148"/>
<text text-anchor="middle" x="499.5" y="-127.5" font-family="Avenir Next" font-size="10.00" fill="#17232b">GEOG420</text>
</a>
</g>
</g>
<!-- course__GEOG329&#45;&gt;course__GEOG420 -->
<g id="edge7" class="edge">
<title>course__GEOG329&#45;&gt;course__GEOG420</title>
<path fill="none" stroke="#5d6972" stroke-width="1.2" d="M407.47,-130C425.81,-130 444.8,-130 460.67,-130"/>
<polygon fill="#5d6972" stroke="#5d6972" stroke-width="1.2" points="460.72,-132.45 467.72,-130 460.72,-127.55 460.72,-132.45"/>
</g>
<!-- course__GEOG428 -->
<g id="node8" class="node">
<title>course__GEOG428</title>
<g id="a_node8"><a xlink:href="../../../courses/GEOG428.html" xlink:title="GEOG428: Advanced Topics in Geographic Information Sciences" target="_top">
<path fill="#e7e2d8" stroke="#1b2730" stroke-width="1.6" d="M519,-92C519,-92 480,-92 480,-92 474,-92 468,-86 468,-80 468,-80 468,-68 468,-68 468,-62 474,-56 480,-56 480,-56 519,-56 519,-56 525,-56 531,-62 531,-68 531,-68 531,-80 531,-80 531,-86 525,-92 519,-92"/>
<text text-anchor="middle" x="499.5" y="-71.5" font-family="Avenir Next" font-size="10.00" fill="#17232b">GEOG428</text>
</a>
</g>
</g>
<!-- course__GEOG329&#45;&gt;course__GEOG428 -->
<g id="edge8" class="edge">
<title>course__GEOG329&#45;&gt;course__GEOG428</title>
<path fill="none" stroke="#5d6972" stroke-width="1.2" d="M387.97,-111.97C411.82,-103.78 439.49,-94.27 461.17,-86.82"/>
<polygon fill="#5d6972" stroke="#5d6972" stroke-width="1.2" points="462.17,-89.07 467.99,-84.48 460.57,-84.44 462.17,-89.07"/>
</g>
<!-- choice_GEOG329_0_1&#45;&gt;course__GEOG329 -->
<g id="edge5" class="edge">
<title>choice_GEOG329_0_1&#45;&gt;course__GEOG329</title>
<path fill="none" stroke="#5d6972" stroke-width="1.2" d="M201.17,-83.25C221.35,-90.38 250.03,-100.51 275.53,-109.52"/>
<polygon fill="#5d6972" stroke="#5d6972" stroke-width="1.2" points="274.86,-111.88 282.28,-111.9 276.5,-107.26 274.86,-111.88"/>
</g>
</g>
</svg>
