<?xml version="1.0" encoding="UTF-8" standalone="no"?>
<!DOCTYPE svg PUBLIC "-//W3C//DTD SVG 1.1//EN"
 "http://www.w3.org/Graphics/SVG/1.1/DTD/svg11.dtd">
<!-- Generated by graphviz version 2.43.0 (0)
 -->
<!-- Title: STAT255 Pages: 1 -->
<svg width="605pt" height="707pt"
 viewBox="0.00 0.00 605.20 707.20" xmlns="http://www.w3.org/2000/svg" xmlns:xlink="http://www.w3.org/1999/xlink">
<g id="graph0" class="graph" transform="scale(1 1) rotate(0) translate(21.6 685.6)">
<title>STAT255</title>
<!-- course__STAT255 -->
<g id="node1" class="node">
<title>course__STAT255</title>
<g id="a_node1"><a xlink:href="../../../courses/STAT255.html" xlink:title="STAT255: Statistics for Life Sciences I" target="_top">
<path fill="#e6dde9" stroke="#1f4f66" stroke-width="2" d="M139,-344C139,-344 12,-344 12,-344 6,-344 0,-338 0,-332 0,-332 0,-320 0,-320 0,-314 6,-308 12,-308 12,-308 139,-308 139,-308 145,-308 151,-314 151,-320 151,-320 151,-332 151,-332 151,-338 145,-344 139,-344"/>
<text text-anchor="middle" x="75.5" y="-329" font-family="Avenir Next" font-size="10.00" fill="#17232b">STAT255</text>
<text text-anchor="middle" x="75.5" y="-318" font-family="Avenir Next" font-size="10.00" fill="#17232b">Statistics for Life Sciences I</text>
</a>
</g>
</g>
<!-- course__BIOL319 -->
<g id="node2" class="node">
<title>course__BIOL319</title>
<g id="a_node2"><a xlink:href="../../../courses/BIOL319.html" xlink:title="BIOL319: Marine Ecology" target="_top">
<path fill="#dbe8d2" stroke="#1b2730" stroke-width="1.6" d="M285,-664C285,-664 252,-664 252,-664 246,-664 240,-658 240,-652 240,-652 240,-640 240,-640 240,-634 246,-628 252,-628 252,-628 285,-628 285,-628 291,-628 297,-634 297,-640 297,-640 297,-652 297,-652 297,-658 291,-664 285,-664"/>
<text text-anchor="middle" x="268.5" y="-643.5" font-family="Avenir Next" font-size="10.00" fill="#17232b">BIOL319</text>
</a>
</g>
</g>
<!-- course__STAT255&#45;&gt;course__BIOL319 -->
<g id="edge1" class="edge">
<title>course__STAT255&#45;&gt;course__BIOL319</title>
<path fill="none" stroke="#5d6972" stroke-width="1.2" d="M81.8,-344.12C96.32,-391.41 140.46,-520.81 212,-606 218.21,-613.39 226.07,-620.12 233.91,-625.87"/>
<polygon fill="#5d6972" stroke="#5d6972" stroke-width="1.2" points="232.73,-628.04 239.87,-630.06 235.55,-624.03 232.73,-628.04"/>
</g>
<!-- course__BIOL330 -->
<g id="node3" class="node">
<title>course__BIOL330</title>
<g id="a_node3"><a xlink:href="../../../courses/BIOL330.html" xlink:title="BIOL330: Study Design and Data Analysis" target="_top">
<path fill="#dbe8d2" stroke="#1b2730" stroke-width="1.6" d="M285,-596C285,-596 252,-596 252,-596 246,-596 240,-590 240,-584 240,-584 240,-572 240,-572 240,-566 246,-560 252,-560 252,-560 285,-560 285,-560 291,-560 297,-566 297,-572 297,-572 297,-584 297,-584 297,-590 291,-596 285,-596"/>
<text text-anchor="middle" x="268.5" y="-575.5" font-family="Avenir Next" font-size="10.00" fill="#17232b">BIOL330</text>
</a>
</g>
</g>
<!-- course__STAT255&#45;&gt;course__BIOL330 -->
<g id="edge2" class="edge">
<title>course__STAT255&#45;&gt;course__BIOL330</title>
<path fill="none" stroke="#5d6972" stroke-width="1.2" d="M83.42,-344.29C99.89,-385.75 145.14,-488.08 212,-550 218.25,-555.79 225.92,-560.67 233.54,-564.65"/>
<polygon fill="#5d6972" stroke="#5d6972" stroke-width="1.2" points="232.53,-566.88 239.9,-567.78 234.7,-562.49 232.53,-566.88"/>
</g>
<!-- course__BIOL370 -->
<g id="node4" class="node">
<title>course__BIOL370</title>
<g id="a_node4"><a xlink:href="../../../courses/BIOL370.html" xlink:title="BIOL370: Conservation Biology" target="_top">
<path fill="#dbe8d2" stroke="#1b2730" stroke-width="1.6" d="M285,-540C285,-540 252,-540 252,-540 246,-540 240,-534 240,-528 240,-528 240,-516 240,-516 240,-510 246,-504 252,-504 252,-504 285,-504 285,-504 291,-504 297,-510 297,-516 297,-516 297,-528 297,-528 297,-534 291,-540 285,-540"/>
<text text-anchor="middle" x="268.5" y="-519.5" font-family="Avenir Next" font-size="10.00" fill="#17232b">BIOL370</text>
</a>
</g>
</g>
<!-- course__STAT255&#45;&gt;course__BIOL370 -->
<g id="edge3" class="edge">
<title>course__STAT255&#45;&gt;course__BIOL370</title>
<path fill="none" stroke="#5d6972" stroke-width="1.2" d="M87.34,-344.03C108.05,-377.26 156.19,-448.9 212,-494 218.36,-499.14 225.82,-503.69 233.17,-507.55"/>
<polygon fill="#5d6972" stroke="#5d6972" stroke-width="1.2" points="232.5,-509.96 239.86,-510.9 234.7,-505.58 232.5,-509.96"/>
</g>
<!-- course__ECON383 -->
<g id="node5" class="node">
<title>course__ECON383</title>
<g id="a_node5"><a xlink:href="../../../courses/ECON383.html" xlink:title="ECON383: Climate Economics" target="_top">
<path fill="#f2ece3" stroke="#1b2730" stroke-width="1.6" d="M287.5,-484C287.5,-484 249.5,-484 249.5,-484 243.5,-484 237.5,-478 237.5,-472 237.5,-472 237.5,-460 237.5,-460 237.5,-454 243.5,-448 249.5,-448 249.5,-448 287.5,-448 287.5,-448 293.5,-448 299.5,-454 299.5,-460 299.5,-460 299.5,-472 299.5,-472 299.5,-478 293.5,-484 287.5,-484"/>
<text text-anchor="middle" x="268.5" y="-463.5" font-family="Avenir Next" font-size="10.00" fill="#17232b">ECON383</text>
</a>
</g>
</g>
<!-- course__STAT255&#45;&gt;course__ECON383 -->
<g id="edge10" class="edge">
<title>course__STAT255&#45;&gt;course__ECON383</title>
<path fill="none" stroke="#5d6972" stroke-width="1.2" d="M95.62,-344.17C120.93,-367.64 167.55,-408.94 212,-438 217.96,-441.9 224.54,-445.65 231.02,-449.06"/>
<polygon fill="#5d6972" stroke="#5d6972" stroke-width="1.2" points="230.09,-451.34 237.44,-452.37 232.33,-446.99 230.09,-451.34"/>
</g>
<!-- course__GEOG319 -->
<g id="node6" class="node">
<title>course__GEOG319</title>
<g id="a_node6"><a xlink:href="../../../courses/GEOG319.html" xlink:title="GEOG319: Remote Sensing of the Environment using Passive Sensors" target="_top">
<path fill="#e7e2d8" stroke="#1b2730" stroke-width="1.6" d="M288,-372C288,-372 249,-372 249,-372 243,-372 237,-366 237,-360 237,-360 237,-348 237,-348 237,-342 243,-336 249,-336 249,-336 288,-336 288,-336 294,-336 300,-342 300,-348 300,-348 300,-360 300,-360 300,-366 294,-372 288,-372"/>
<text text-anchor="middle" x="268.5" y="-351.5" font-family="Avenir Next" font-size="10.00" fill="#17232b">GEOG319</text>
</a>
</g>
</g>
<!-- course__STAT255&#45;&gt;course__GEOG319 -->
<g id="edge11" class="edge">
<title>course__STAT255&#45;&gt;course__GEOG319</title>
<path fill="none" stroke="#5d6972" stroke-width="1.2" d="M151.17,-336.95C177.98,-340.88 207.09,-345.14 229.49,-348.43"/>
<polygon fill="#5d6972" stroke="#5d6972" stroke-width="1.2" points="229.23,-350.87 236.52,-349.46 229.94,-346.02 229.23,-350.87"/>
</g>
<!-- course__GEOG322 -->
<g id="node7" class="node">
<title>course__GEOG322</title>
<g id="a_node7"><a xlink:href="../../../courses/GEOG322.html" xlink:title="GEOG322: Remote Sensing of the Environment using Active Sensors" target="_top">
<path fill="#e7e2d8" stroke="#1b2730" stroke-width="1.6" d="M288,-428C288,-428 249,-428 249,-428 243,-428 237,-422 237,-416 237,-416 237,-404 237,-404 237,-398 243,-392 249,-392 249,-392 288,-392 288,-392 294,-392 300,-398 300,-404 300,-404 300,-416 300,-416 300,-422 294,-428 288,-428"/>
<text text-anchor="middle" x="268.5" y="-407.5" font-family="Avenir Next" font-size="10.00" fill="#17232b">GEOG322</text>
</a>
</g>
</g>
<!-- course__STAT255&#45;&gt;course__GEOG322 -->
<g id="edge12" class="edge">
<title>course__STAT255&#45;&gt;course__GEOG322</title>
<path fill="none" stroke="#5d6972" stroke-width="1.2" d="M117.47,-344.02C150.94,-358.74 197.83,-379.36 230.25,-393.62"/>
<polygon fill="#5d6972" stroke="#5d6972" stroke-width="1.2" points="229.54,-395.98 236.93,-396.56 231.51,-391.5 229.54,-395.98"/>
</g>
<!-- course__GEOG323 -->
<g id="node8" class="node">
<title>course__GEOG323</title>
<g id="a_node8"><a xlink:href="../../../courses/GEOG323.html" xlink:title="GEOG323: Digital Mapping" target="_top">
<path fill="#e7e2d8" stroke="#1b2730" stroke-width="1.6" d="M288,-204C288,-204 249,-204 249,-204 243,-204 237,-198 237,-192 237,-192 237,-180 237,-180 237,-174 243,-168 249,-168 249,-168 288,-168 288,-168 294,-168 300,-174 300,-180 300,-180 300,-192 300,-192 300,-198 294,-204 288,-204"/>
<text text-anchor="middle" x="268.5" y="-183.5" font-family="Avenir Next" font-size="10.00" fill="#17232b">GEOG323</text>
</a>
</g>
</g>
<!-- course__STAT255&#45;&gt;course__GEOG323 -->
<g id="edge13" class="edge">
<title>course__STAT255&#45;&gt;course__GEOG323</title>
<path fill="none" stroke="#5d6972" stroke-width="1.2" d="M95.62,-307.83C120.93,-284.36 167.55,-243.06 212,-214 217.83,-210.19 224.24,-206.52 230.58,-203.17"/>
<polygon fill="#5d6972" stroke="#5d6972" stroke-width="1.2" points="231.76,-205.31 236.86,-199.92 229.52,-200.96 231.76,-205.31"/>
</g>
<!-- course__GEOG328 -->
<g id="node9" class="node">
<title>course__GEOG328</title>
<g id="a_node9"><a xlink:href="../../../courses/GEOG328.html" xlink:title="GEOG328: GIS Analysis" target="_top">
<path fill="#e7e2d8" stroke="#1b2730" stroke-width="1.6" d="M288,-316C288,-316 249,-316 249,-316 243,-316 237,-310 237,-304 237,-304 237,-292 237,-292 237,-286 243,-280 249,-280 249,-280 288,-280 288,-280 294,-280 300,-286 300,-292 300,-292 300,-304 300,-304 300,-310 294,-316 288,-316"/>
<text text-anchor="middle" x="268.5" y="-295.5" font-family="Avenir Next" font-size="10.00" fill="#17232b">GEOG328</text>
</a>
</g>
</g>
<!-- course__STAT255&#45;&gt;course__GEOG328 -->
<g id="edge14" class="edge">
<title>course__STAT255&#45;&gt;course__GEOG328</title>
<path fill="none" stroke="#5d6972" stroke-width="1.2" d="M151.17,-315.05C177.98,-311.12 207.09,-306.86 229.49,-303.57"/>
<polygon fill="#5d6972" stroke="#5d6972" stroke-width="1.2" points="229.94,-305.98 236.52,-302.54 229.23,-301.13 229.94,-305.98"/>
</g>
<!-- course__GEOG329 -->
<g id="node10" class="node">
<title>course__GEOG329</title>
<g id="a_node10"><a xlink:href="../../../courses/GEOG329.html" xlink:title="GEOG329: GIS Applications and Tools" target="_top">
<path fill="#e7e2d8" stroke="#1b2730" stroke-width="1.6" d="M288,-260C288,-260 249,-260 249,-260 243,-260 237,-254 237,-248 237,-248 237,-236 237,-236 237,-230 243,-224 249,-224 249,-224 288,-224 288,-224 294,-224 300,-230 300,-236 300,-236 300,-248 300,-248 300,-254 294,-260 288,-260"/>
<text text-anchor="middle" x="268.5" y="-239.5" font-family="Avenir Next" font-size="10.00" fill="#17232b">GEOG329</text>
</a>
</g>
</g>
<!-- course__STAT255&#45;&gt;course__GEOG329 -->
<g id="edge15" class="edge">
<title>course__STAT255&#45;&gt;course__GEOG329</title>
<path fill="none" stroke="#5d6972" stroke-width="1.2" d="M117.47,-307.98C150.94,-293.26 197.83,-272.64 230.25,-258.38"/>
<polygon fill="#5d6972" stroke="#5d6972" stroke-width="1.2" points="231.51,-260.5 236.93,-255.44 229.54,-256.02 231.51,-260.5"/>
</g>
<!-- course__MATH352 -->
<g id="node11" class="node">
<title>course__MATH352</title>
<g id="a_node11"><a xlink:href="../../../courses/MATH352.html" xlink:title="Equivalent or cross&#45;listed: MATH352: Introduction to Probability | STAT350: Mathematical Statistics I" target="_top">
<path fill="#dfe3f4" stroke="#1b2730" stroke-width="1.6" d="M313,-148C313,-148 224,-148 224,-148 218,-148 212,-142 212,-136 212,-136 212,-124 212,-124 212,-118 218,-112 224,-112 224,-112 313,-112 313,-112 319,-112 325,-118 325,-124 325,-124 325,-136 325,-136 325,-142 319,-148 313,-148"/>
<text text-anchor="middle" x="268.5" y="-127.5" font-family="Avenir Next" font-size="10.00" fill="#17232b">MATH352 / STAT350</text>
</a>
</g>
</g>
<!-- course__STAT255&#45;&gt;course__MATH352 -->
<g id="edge29" class="edge">
<title>course__STAT255&#45;&gt;course__MATH352</title>
<path fill="none" stroke="#5d6972" stroke-width="1.2" d="M87.34,-307.97C108.05,-274.74 156.19,-203.1 212,-158 214.64,-155.87 217.47,-153.83 220.41,-151.91"/>
<polygon fill="#5d6972" stroke="#5d6972" stroke-width="1.2" points="221.88,-153.88 226.54,-148.11 219.3,-149.71 221.88,-153.88"/>
</g>
<!-- course__MATH377 -->
<g id="node12" class="node">
<title>course__MATH377</title>
<g id="a_node12"><a xlink:href="../../../courses/MATH377.html" xlink:title="MATH377: Mathematical Modelling" target="_top">
<path fill="#dfe3f4" stroke="#1b2730" stroke-width="1.6" d="M288,-92C288,-92 249,-92 249,-92 243,-92 237,-86 237,-80 237,-80 237,-68 237,-68 237,-62 243,-56 249,-56 249,-56 288,-56 288,-56 294,-56 300,-62 300,-68 300,-68 300,-80 300,-80 300,-86 294,-92 288,-92"/>
<text text-anchor="middle" x="268.5" y="-71.5" font-family="Avenir Next" font-size="10.00" fill="#17232b">MATH377</text>
</a>
</g>
</g>
<!-- course__STAT255&#45;&gt;course__MATH377 -->
<g id="edge30" class="edge">
<title>course__STAT255&#45;&gt;course__MATH377</title>
<path fill="none" stroke="#5d6972" stroke-width="1.2" d="M83.42,-307.71C99.89,-266.25 145.14,-163.92 212,-102 217.34,-97.05 223.73,-92.76 230.23,-89.14"/>
<polygon fill="#5d6972" stroke="#5d6972" stroke-width="1.2" points="231.68,-91.14 236.75,-85.73 229.41,-86.8 231.68,-91.14"/>
</g>
<!-- course__STAT359 -->
<g id="node13" class="node">
<title>course__STAT359</title>
<g id="a_node13"><a xlink:href="../../../courses/STAT359.html" xlink:title="STAT359: Data Analysis" target="_top">
<path fill="#e6dde9" stroke="#1b2730" stroke-width="1.6" d="M285.5,-36C285.5,-36 251.5,-36 251.5,-36 245.5,-36 239.5,-30 239.5,-24 239.5,-24 239.5,-12 239.5,-12 239.5,-6 245.5,0 251.5,0 251.5,0 285.5,0 285.5,0 291.5,0 297.5,-6 297.5,-12 297.5,-12 297.5,-24 297.5,-24 297.5,-30 291.5,-36 285.5,-36"/>
<text text-anchor="middle" x="268.5" y="-15.5" font-family="Avenir Next" font-size="10.00" fill="#17232b">STAT359</text>
</a>
</g>
</g>
<!-- course__STAT255&#45;&gt;course__STAT359 -->
<g id="edge31" class="edge">
<title>course__STAT255&#45;&gt;course__STAT359</title>
<path fill="none" stroke="#5d6972" stroke-width="1.2" d="M80.88,-307.91C93.4,-259.58 133.61,-125.7 212,-46 217.91,-39.99 225.39,-35.04 232.91,-31.06"/>
<polygon fill="#5d6972" stroke="#5d6972" stroke-width="1.2" points="234.03,-33.25 239.22,-27.95 231.86,-28.85 234.03,-33.25"/>
</g>
<!-- course__BIOL466 -->
<g id="node16" class="node">
<title>course__BIOL466</title>
<g id="a_node16"><a xlink:href="../../../courses/BIOL466.html" xlink:title="BIOL466: Frontiers in Marine Biology" target="_top">
<path fill="#dbe8d2" stroke="#7e8d96" d="M547.5,-662C547.5,-662 515.5,-662 515.5,-662 509.5,-662 503.5,-656 503.5,-650 503.5,-650 503.5,-638 503.5,-638 503.5,-632 509.5,-626 515.5,-626 515.5,-626 547.5,-626 547.5,-626 553.5,-626 559.5,-632 559.5,-638 559.5,-638 559.5,-650 559.5,-650 559.5,-656 553.5,-662 547.5,-662"/>
<text text-anchor="middle" x="531.5" y="-641.8" font-family="Avenir Next" font-size="9.00" fill="#41515b">BIOL466</text>
</a>
</g>
</g>
<!-- course__BIOL319&#45;&gt;course__BIOL466 -->
<g id="edge8" class="edge">
<title>course__BIOL319&#45;&gt;course__BIOL466</title>
<path fill="none" stroke="#5d6972" stroke-width="1.2" d="M297.43,-645.79C345.54,-645.42 443.87,-644.66 496.11,-644.26"/>
<polygon fill="#5d6972" stroke="#5d6972" stroke-width="1.2" points="496.18,-646.71 503.16,-644.21 496.14,-641.81 496.18,-646.71"/>
</g>
<!-- course__BIOL446 -->
<g id="node14" class="node">
<title>course__BIOL446</title>
<g id="a_node14"><a xlink:href="../../../courses/BIOL446.html" xlink:title="BIOL446: Advanced Aquatic Ecology" target="_top">
<path fill="#dbe8d2" stroke="#7e8d96" d="M547.5,-592C547.5,-592 515.5,-592 515.5,-592 509.5,-592 503.5,-586 503.5,-580 503.5,-580 503.5,-568 503.5,-568 503.5,-562 509.5,-556 515.5,-556 515.5,-556 547.5,-556 547.5,-556 553.5,-556 559.5,-562 559.5,-568 559.5,-568 559.5,-580 559.5,-580 559.5,-586 553.5,-592 547.5,-592"/>
<text text-anchor="middle" x="531.5" y="-571.8" font-family="Avenir Next" font-size="9.00" fill="#41515b">BIOL446</text>
</a>
</g>
</g>
<!-- course__BIOL330&#45;&gt;course__BIOL446 -->
<g id="edge4" class="edge">
<title>course__BIOL330&#45;&gt;course__BIOL446</title>
<path fill="none" stroke="#5d6972" stroke-width="1.2" d="M297.43,-577.57C345.54,-576.83 443.87,-575.33 496.11,-574.53"/>
<polygon fill="#5d6972" stroke="#5d6972" stroke-width="1.2" points="496.2,-576.98 503.16,-574.42 496.12,-572.08 496.2,-576.98"/>
</g>
<!-- course__BIOL330&#45;&gt;course__BIOL466 -->
<g id="edge9" class="edge">
<title>course__BIOL330&#45;&gt;course__BIOL466</title>
<path fill="none" stroke="#5d6972" stroke-width="1.2" d="M297.43,-585.06C345.54,-597.23 443.87,-622.09 496.11,-635.3"/>
<polygon fill="#5d6972" stroke="#5d6972" stroke-width="1.2" points="495.77,-637.75 503.16,-637.09 496.98,-633 495.77,-637.75"/>
</g>
<!-- choice_BIOL461_0_0 -->
<g id="node21" class="node">
<title>choice_BIOL461_0_0</title>
<path fill="#fff7ee" stroke="#b7793f" stroke-width="1.1" d="M428,-540C428,-540 398,-540 398,-540 392,-540 386,-534 386,-528 386,-528 386,-516 386,-516 386,-510 392,-504 398,-504 398,-504 428,-504 428,-504 434,-504 440,-510 440,-516 440,-516 440,-528 440,-528 440,-534 434,-540 428,-540"/>
<text text-anchor="middle" x="413" y="-519.8" font-family="Avenir Next" font-size="9.00">1 of</text>
</g>
<!-- course__BIOL330&#45;&gt;choice_BIOL461_0_0 -->
<g id="edge5" class="edge">
<title>course__BIOL330&#45;&gt;choice_BIOL461_0_0</title>
<path fill="none" stroke="#7a8389" d="M297.31,-567.07C320.71,-557.88 354.21,-544.71 378.96,-534.98"/>
<polygon fill="#7a8389" stroke="#7a8389" points="380.08,-537.18 385.7,-532.34 378.29,-532.62 380.08,-537.18"/>
</g>
<!-- course__BIOL370&#45;&gt;choice_BIOL461_0_0 -->
<g id="edge6" class="edge">
<title>course__BIOL370&#45;&gt;choice_BIOL461_0_0</title>
<path fill="none" stroke="#7a8389" d="M297.31,-522C320.61,-522 353.92,-522 378.65,-522"/>
<polygon fill="#7a8389" stroke="#7a8389" points="378.7,-524.45 385.7,-522 378.7,-519.55 378.7,-524.45"/>
</g>
<!-- course__GEOG420 -->
<g id="node18" class="node">
<title>course__GEOG420</title>
<g id="a_node18"><a xlink:href="../../../courses/GEOG420.html" xlink:title="GEOG420: Field Studies in Coastal Geomatics" target="_top">
<path fill="#e7e2d8" stroke="#7e8d96" d="M550,-346C550,-346 513,-346 513,-346 507,-346 501,-340 501,-334 501,-334 501,-322 501,-322 501,-316 507,-310 513,-310 513,-310 550,-310 550,-310 556,-310 562,-316 562,-322 562,-322 562,-334 562,-334 562,-340 556,-346 550,-346"/>
<text text-anchor="middle" x="531.5" y="-325.8" font-family="Avenir Next" font-size="9.00" fill="#41515b">GEOG420</text>
</a>
</g>
</g>
<!-- course__GEOG319&#45;&gt;course__GEOG420 -->
<g id="edge21" class="edge">
<title>course__GEOG319&#45;&gt;course__GEOG420</title>
<path fill="none" stroke="#5d6972" stroke-width="1.2" d="M300.21,-350.94C348.47,-346.13 441.9,-336.83 493.69,-331.67"/>
<polygon fill="#5d6972" stroke="#5d6972" stroke-width="1.2" points="493.99,-334.1 500.71,-330.97 493.5,-329.22 493.99,-334.1"/>
</g>
<!-- choice_GEOG422_0 -->
<g id="node24" class="node">
<title>choice_GEOG422_0</title>
<path fill="#fff7ee" stroke="#b7793f" stroke-width="1.1" d="M428,-425C428,-425 398,-425 398,-425 392,-425 386,-419 386,-413 386,-413 386,-401 386,-401 386,-395 392,-389 398,-389 398,-389 428,-389 428,-389 434,-389 440,-395 440,-401 440,-401 440,-413 440,-413 440,-419 434,-425 428,-425"/>
<text text-anchor="middle" x="413" y="-404.8" font-family="Avenir Next" font-size="9.00">1 of</text>
</g>
<!-- course__GEOG319&#45;&gt;choice_GEOG422_0 -->
<g id="edge23" class="edge">
<title>course__GEOG319&#45;&gt;choice_GEOG422_0</title>
<path fill="none" stroke="#7a8389" d="M300.07,-365.37C323.29,-374.01 355.19,-385.87 378.99,-394.72"/>
<polygon fill="#7a8389" stroke="#7a8389" points="378.37,-397.11 385.79,-397.25 380.08,-392.51 378.37,-397.11"/>
</g>
<!-- course__GEOG322&#45;&gt;choice_GEOG422_0 -->
<g id="edge24" class="edge">
<title>course__GEOG322&#45;&gt;choice_GEOG422_0</title>
<path fill="none" stroke="#7a8389" d="M300.07,-409.36C323.19,-408.87 354.91,-408.2 378.68,-407.7"/>
<polygon fill="#7a8389" stroke="#7a8389" points="378.84,-410.15 385.79,-407.55 378.74,-405.25 378.84,-410.15"/>
</g>
<!-- choice_GEOG418_0 -->
<g id="node22" class="node">
<title>choice_GEOG418_0</title>
<path fill="#fff7ee" stroke="#b7793f" stroke-width="1.1" d="M428,-267C428,-267 398,-267 398,-267 392,-267 386,-261 386,-255 386,-255 386,-243 386,-243 386,-237 392,-231 398,-231 398,-231 428,-231 428,-231 434,-231 440,-237 440,-243 440,-243 440,-255 440,-255 440,-261 434,-267 428,-267"/>
<text text-anchor="middle" x="413" y="-246.8" font-family="Avenir Next" font-size="9.00">1 of</text>
</g>
<!-- course__GEOG328&#45;&gt;choice_GEOG418_0 -->
<g id="edge16" class="edge">
<title>course__GEOG328&#45;&gt;choice_GEOG418_0</title>
<path fill="none" stroke="#7a8389" d="M300.07,-287.49C323.29,-279.5 355.19,-268.54 378.99,-260.35"/>
<polygon fill="#7a8389" stroke="#7a8389" points="379.96,-262.61 385.79,-258.01 378.37,-257.97 379.96,-262.61"/>
</g>
<!-- choice_GEOG420_0_1 -->
<g id="node23" class="node">
<title>choice_GEOG420_0_1</title>
<path fill="#fff7ee" stroke="#b7793f" stroke-width="1.1" d="M428,-323C428,-323 398,-323 398,-323 392,-323 386,-317 386,-311 386,-311 386,-299 386,-299 386,-293 392,-287 398,-287 398,-287 428,-287 428,-287 434,-287 440,-293 440,-299 440,-299 440,-311 440,-311 440,-317 434,-323 428,-323"/>
<text text-anchor="middle" x="413" y="-302.8" font-family="Avenir Next" font-size="9.00">1 of</text>
</g>
<!-- course__GEOG328&#45;&gt;choice_GEOG420_0_1 -->
<g id="edge19" class="edge">
<title>course__GEOG328&#45;&gt;choice_GEOG420_0_1</title>
<path fill="none" stroke="#7a8389" d="M300.07,-299.5C323.19,-300.64 354.91,-302.2 378.68,-303.36"/>
<polygon fill="#7a8389" stroke="#7a8389" points="378.67,-305.82 385.79,-303.71 378.91,-300.92 378.67,-305.82"/>
</g>
<!-- choice_GEOG428_0 -->
<g id="node25" class="node">
<title>choice_GEOG428_0</title>
<path fill="#fff7ee" stroke="#b7793f" stroke-width="1.1" d="M428,-211C428,-211 398,-211 398,-211 392,-211 386,-205 386,-199 386,-199 386,-187 386,-187 386,-181 392,-175 398,-175 398,-175 428,-175 428,-175 434,-175 440,-181 440,-187 440,-187 440,-199 440,-199 440,-205 434,-211 428,-211"/>
<text text-anchor="middle" x="413" y="-190.8" font-family="Avenir Next" font-size="9.00">1 of</text>
</g>
<!-- course__GEOG328&#45;&gt;choice_GEOG428_0 -->
<g id="edge26" class="edge">
<title>course__GEOG328&#45;&gt;choice_GEOG428_0</title>
<path fill="none" stroke="#7a8389" d="M300.26,-284.25C308.53,-280.08 317.32,-275.21 325,-270 348.25,-254.24 371.95,-232.84 388.73,-216.6"/>
<polygon fill="#7a8389" stroke="#7a8389" points="390.85,-217.95 394.14,-211.31 387.42,-214.45 390.85,-217.95"/>
</g>
<!-- course__GEOG329&#45;&gt;choice_GEOG418_0 -->
<g id="edge17" class="edge">
<title>course__GEOG329&#45;&gt;choice_GEOG418_0</title>
<path fill="none" stroke="#7a8389" d="M300.07,-243.5C323.19,-244.64 354.91,-246.2 378.68,-247.36"/>
<polygon fill="#7a8389" stroke="#7a8389" points="378.67,-249.82 385.79,-247.71 378.91,-244.92 378.67,-249.82"/>
</g>
<!-- course__GEOG329&#45;&gt;choice_GEOG420_0_1 -->
<g id="edge20" class="edge">
<title>course__GEOG329&#45;&gt;choice_GEOG420_0_1</title>
<path fill="none" stroke="#7a8389" d="M300.07,-255.52C323.39,-265.83 355.46,-280 379.3,-290.54"/>
<polygon fill="#7a8389" stroke="#7a8389" points="378.39,-292.82 385.79,-293.41 380.37,-288.34 378.39,-292.82"/>
</g>
<!-- course__GEOG329&#45;&gt;choice_GEOG428_0 -->
<g id="edge27" class="edge">
<title>course__GEOG329&#45;&gt;choice_GEOG428_0</title>
<path fill="none" stroke="#7a8389" d="M300.07,-231.49C323.29,-223.5 355.19,-212.54 378.99,-204.35"/>
<polygon fill="#7a8389" stroke="#7a8389" points="379.96,-206.61 385.79,-202.01 378.37,-201.97 379.96,-206.61"/>
</g>
<!-- course__BIOL461 -->
<g id="node15" class="node">
<title>course__BIOL461</title>
<g id="a_node15"><a xlink:href="../../../courses/BIOL461.html" xlink:title="BIOL461: Fisheries Ecology and Management" target="_top">
<path fill="#dbe8d2" stroke="#7e8d96" d="M547.5,-536C547.5,-536 515.5,-536 515.5,-536 509.5,-536 503.5,-530 503.5,-524 503.5,-524 503.5,-512 503.5,-512 503.5,-506 509.5,-500 515.5,-500 515.5,-500 547.5,-500 547.5,-500 553.5,-500 559.5,-506 559.5,-512 559.5,-512 559.5,-524 559.5,-524 559.5,-530 553.5,-536 547.5,-536"/>
<text text-anchor="middle" x="531.5" y="-515.8" font-family="Avenir Next" font-size="9.00" fill="#41515b">BIOL461</text>
</a>
</g>
</g>
<!-- course__GEOG418 -->
<g id="node17" class="node">
<title>course__GEOG418</title>
<g id="a_node17"><a xlink:href="../../../courses/GEOG418.html" xlink:title="GEOG418: Advanced Spatial Analysis and Geo&#45;statistics" target="_top">
<path fill="#e7e2d8" stroke="#7e8d96" d="M550,-267C550,-267 513,-267 513,-267 507,-267 501,-261 501,-255 501,-255 501,-243 501,-243 501,-237 507,-231 513,-231 513,-231 550,-231 550,-231 556,-231 562,-237 562,-243 562,-243 562,-255 562,-255 562,-261 556,-267 550,-267"/>
<text text-anchor="middle" x="531.5" y="-246.8" font-family="Avenir Next" font-size="9.00" fill="#41515b">GEOG418</text>
</a>
</g>
</g>
<!-- course__GEOG422 -->
<g id="node19" class="node">
<title>course__GEOG422</title>
<g id="a_node19"><a xlink:href="../../../courses/GEOG422.html" xlink:title="GEOG422: Advanced Topics in Remote Sensing" target="_top">
<path fill="#e7e2d8" stroke="#7e8d96" d="M550,-425C550,-425 513,-425 513,-425 507,-425 501,-419 501,-413 501,-413 501,-401 501,-401 501,-395 507,-389 513,-389 513,-389 550,-389 550,-389 556,-389 562,-395 562,-401 562,-401 562,-413 562,-413 562,-419 556,-425 550,-425"/>
<text text-anchor="middle" x="531.5" y="-404.8" font-family="Avenir Next" font-size="9.00" fill="#41515b">GEOG422</text>
</a>
</g>
</g>
<!-- course__GEOG428 -->
<g id="node20" class="node">
<title>course__GEOG428</title>
<g id="a_node20"><a xlink:href="../../../courses/GEOG428.html" xlink:title="GEOG428: Advanced Topics in Geographic Information Sciences" target="_top">
<path fill="#e7e2d8" stroke="#7e8d96" d="M550,-211C550,-211 513,-211 513,-211 507,-211 501,-205 501,-199 501,-199 501,-187 501,-187 501,-181 507,-175 513,-175 513,-175 550,-175 550,-175 556,-175 562,-181 562,-187 562,-187 562,-199 562,-199 562,-205 556,-211 550,-211"/>
<text text-anchor="middle" x="531.5" y="-190.8" font-family="Avenir Next" font-size="9.00" fill="#41515b">GEOG428</text>
</a>
</g>
</g>
<!-- choice_BIOL461_0_0&#45;&gt;course__BIOL461 -->
<g id="edge7" class="edge">
<title>choice_BIOL461_0_0&#45;&gt;course__BIOL461</title>
<path fill="none" stroke="#5d6972" stroke-width="1.2" d="M440.14,-521.1C456.58,-520.54 477.98,-519.8 495.82,-519.19"/>
<polygon fill="#5d6972" stroke="#5d6972" stroke-width="1.2" points="496.32,-521.63 503.23,-518.94 496.15,-516.73 496.32,-521.63"/>
</g>
<!-- choice_GEOG418_0&#45;&gt;course__GEOG418 -->
<g id="edge18" class="edge">
<title>choice_GEOG418_0&#45;&gt;course__GEOG418</title>
<path fill="none" stroke="#5d6972" stroke-width="1.2" d="M440.14,-249C455.88,-249 476.15,-249 493.51,-249"/>
<polygon fill="#5d6972" stroke="#5d6972" stroke-width="1.2" points="493.75,-251.45 500.75,-249 493.75,-246.55 493.75,-251.45"/>
</g>
<!-- choice_GEOG420_0_1&#45;&gt;course__GEOG420 -->
<g id="edge22" class="edge">
<title>choice_GEOG420_0_1&#45;&gt;course__GEOG420</title>
<path fill="none" stroke="#5d6972" stroke-width="1.2" d="M440.14,-310.16C455.88,-313.27 476.15,-317.27 493.51,-320.7"/>
<polygon fill="#5d6972" stroke="#5d6972" stroke-width="1.2" points="493.4,-323.17 500.75,-322.13 494.35,-318.37 493.4,-323.17"/>
</g>
<!-- choice_GEOG422_0&#45;&gt;course__GEOG422 -->
<g id="edge25" class="edge">
<title>choice_GEOG422_0&#45;&gt;course__GEOG422</title>
<path fill="none" stroke="#5d6972" stroke-width="1.2" d="M440.14,-407C455.88,-407 476.15,-407 493.51,-407"/>
<polygon fill="#5d6972" stroke="#5d6972" stroke-width="1.2" points="493.75,-409.45 500.75,-407 493.75,-404.55 493.75,-409.45"/>
</g>
<!-- choice_GEOG428_0&#45;&gt;course__GEOG428 -->
<g id="edge28" class="edge">
<title>choice_GEOG428_0&#45;&gt;course__GEOG428</title>
<path fill="none" stroke="#5d6972" stroke-width="1.2" d="M440.14,-193C455.88,-193 476.15,-193 493.51,-193"/>
<polygon fill="#5d6972" stroke="#5d6972" stroke-width="1.2" points="493.75,-195.45 500.75,-193 493.75,-190.55 493.75,-195.45"/>
</g>
</g>
</svg>
